<?xml version="1.0" standalone="no"?><!DOCTYPE svg PUBLIC "-//W3C//DTD SVG 1.1//EN" "http://www.w3.org/Graphics/SVG/1.1/DTD/svg11.dtd"><svg t="1691854272081" class="icon" viewBox="0 0 1024 1024" version="1.1" xmlns="http://www.w3.org/2000/svg" p-id="2440" xmlns:xlink="http://www.w3.org/1999/xlink" width="128" height="128"><path d="M804.77 959.15H219.54c-55.71 0-101.06-45.34-101.06-101.06V219.97c0-55.71 45.34-101.06 101.06-101.06h133.59c15.22 0 27.56 12.35 27.56 27.56 0 15.22-12.35 27.56-27.56 27.56H219.54c-25.34 0-45.94 20.6-45.94 45.94v638.12c0 25.34 20.6 45.94 45.94 45.94h585.22c25.34 0 45.93-20.6 45.93-45.94V219.97c0-25.34-20.6-45.94-45.93-45.94H671.18c-15.22 0-27.56-12.35-27.56-27.56 0-15.22 12.35-27.56 27.56-27.56h133.59c55.71 0 101.06 45.34 101.06 101.06v638.12c-0.01 55.72-45.35 101.06-101.06 101.06z" fill="#000000" p-id="2441"></path><path d="M671.18 228.69H353.17c-15.22 0-27.56-12.35-27.56-27.56V91.95c0-15.22 12.35-27.56 27.56-27.56h318.01c15.22 0 27.56 12.35 27.56 27.56v109.19c0 15.21-12.35 27.55-27.56 27.55z m-290.45-55.12h262.89v-54.06H380.73v54.06zM696.01 727.07H328.35c-15.22 0-27.56-12.35-27.56-27.56 0-15.22 12.35-27.56 27.56-27.56h367.66c15.22 0 27.56 12.35 27.56 27.56 0 15.22-12.34 27.56-27.56 27.56zM696.01 570.89H328.35c-15.22 0-27.56-12.35-27.56-27.56 0-15.22 12.35-27.56 27.56-27.56h367.66c15.22 0 27.56 12.35 27.56 27.56 0 15.22-12.34 27.56-27.56 27.56zM696.01 414.71H328.35c-15.22 0-27.56-12.35-27.56-27.56 0-15.22 12.35-27.56 27.56-27.56h367.66c15.22 0 27.56 12.35 27.56 27.56 0 15.22-12.34 27.56-27.56 27.56z" fill="#000000" p-id="2442"></path></svg>