<?xml version="1.0" standalone="no"?><!DOCTYPE svg PUBLIC "-//W3C//DTD SVG 1.1//EN" "http://www.w3.org/Graphics/SVG/1.1/DTD/svg11.dtd"><svg t="1691820510000" class="icon" viewBox="0 0 1024 1024" version="1.1" xmlns="http://www.w3.org/2000/svg" p-id="2558" xmlns:xlink="http://www.w3.org/1999/xlink" width="128" height="128"><path d="M969.626 656.896A204.8 204.8 0 0 0 643.84 779.571H533.606a204.8 204.8 0 0 0-401.766 0h-11.366A43.674 43.674 0 0 1 76.8 735.898V430.08c0-24.115 19.558-43.674 43.674-43.674h276.019a102.4 102.4 0 0 0 0.921 0l284.826-2.56v-40.601c0-34.816 17.357-65.536 43.878-84.02L711.526 204.8h-4.966a51.2 51.2 0 1 1 0-102.4h102.4a51.2 51.2 0 0 1 8.397 101.734l9.933 37.07c16.025 2.098 29.798 12.953 35.43 28.415l106.906 387.328zM682.24 383.846l-263.424 2.56c29.133 1.076 43.674 15.77 43.674 44.032v54.272c0 78.49 7.27 129.69 113.51 129.69s104.96-54.682 104.96-130.304l1.28-100.25zM119.45 102.4h170.7c23.552 0 42.65 18.33 42.65 40.96v122.88c0 22.63-19.098 40.96-42.65 40.96h-170.7c-23.552 0-42.65-18.33-42.65-40.96V143.36c0-22.63 19.098-40.96 42.65-40.96z m213.248 819.2a102.4 102.4 0 1 1 0.102-204.698 102.4 102.4 0 0 1-0.102 204.698z m512 0a102.4 102.4 0 1 1 0.102-204.698 102.4 102.4 0 0 1-0.102 204.698z" fill="" p-id="2559"></path></svg>